<?xml version="1.0" standalone="no"?>
<!DOCTYPE svg PUBLIC "-//W3C//DTD SVG 20010904//EN"
 "http://www.w3.org/TR/2001/REC-SVG-20010904/DTD/svg10.dtd">
<svg version="1.0" xmlns="http://www.w3.org/2000/svg"
 width="2048.000000pt" height="2048.000000pt" viewBox="0 0 2048.000000 2048.000000"
 preserveAspectRatio="xMidYMid meet">
<metadata>
Created by potrace 1.14, written by Peter Selinger 2001-2017
</metadata>
<g transform="translate(0.000000,2048.000000) scale(0.100000,-0.100000)"
fill="#000000" stroke="none">
<path d="M10077 19994 c-1 -1 -99 -4 -217 -8 -118 -3 -235 -8 -260 -11 -25 -2
-108 -9 -185 -15 -77 -6 -151 -13 -165 -15 -14 -2 -56 -6 -95 -10 -132 -12
-499 -66 -684 -101 -1495 -277 -2869 -879 -4076 -1784 -1016 -762 -1866 -1703
-2522 -2790 -105 -174 -126 -212 -245 -435 -587 -1101 -950 -2283 -1087 -3540
-59 -531 -72 -1182 -35 -1700 75 -1062 293 -2017 679 -2980 40 -99 82 -200 93
-225 11 -25 54 -120 96 -211 272 -602 656 -1243 1079 -1804 81 -107 283 -362
297 -375 3 -3 30 -34 60 -70 278 -331 666 -722 1040 -1050 273 -239 676 -546
990 -755 1355 -899 2877 -1438 4495 -1589 585 -55 1358 -52 1892 8 21 3 65 7
98 11 33 3 128 15 210 26 1693 222 3317 902 4680 1959 106 82 335 267 345 279
3 3 23 21 45 40 567 480 1157 1131 1612 1776 121 172 350 523 397 610 7 11 37
63 68 115 346 586 678 1347 887 2032 155 508 291 1142 346 1603 3 28 10 84 15
125 74 611 85 1314 30 1961 -94 1108 -365 2153 -827 3187 -68 153 -280 572
-352 696 -28 49 -51 90 -51 92 0 8 -173 296 -258 429 -107 167 -273 411 -337
495 -23 30 -61 82 -86 115 -95 129 -407 517 -438 545 -4 3 -24 25 -45 50 -267
307 -636 672 -966 955 -991 850 -2107 1480 -3325 1878 -599 196 -1248 340
-1857 411 -189 23 -313 34 -423 41 -55 3 -109 8 -120 10 -46 9 -788 27 -798
19z"/>
</g>
</svg>
